ffmpeg started on 2025-06-07 at 17:35:05
Report written to "D:\Convert\FFMetrics\reports\ssim_report-6.txt"
Log level: 32
Command line:
ffmpeg -hide_banner -nostdin -i "G:\\\xc0\xed\xe8\xec\xe5\\\xce\xed\xe3\xee\xe8\xed\xe3\xe8\\!_36_\xce\xf1\xe5\xed\xfc_2024\\DreamCast\\\xdd\xe9, \xd2\xee\xec\xe1\xee!\\\xd2\xc2-2\\[DC] Tonbo 2 - 02_Telegram_HEVC.mkv" -i "G:\\\xc0\xed\xe8\xec\xe5\\\xce\xed\xe3\xee\xe8\xed\xe3\xe8\\!_36_\xce\xf1\xe5\xed\xfc_2024\\DreamCast\\\xdd\xe9, \xd2\xee\xec\xe1\xee!\\\xd2\xc2-2\\[DC] Tonbo 2 - 02_Telegram.mp4" -lavfi "[0:v]settb=AVTB,setpts=PTS-STARTPTS,format=pix_fmts=yuv420p10,fps=24000/1001,scale=1920:1080:flags=bicubic[main];[1:v]settb=AVTB,setpts=PTS-STARTPTS,format=pix_fmts=yuv420p,fps=24000/1001,scale=1920:1080:flags=bicubic[ref];[main][ref]ssim=eof_action=endall:stats_file='D\\:/Convert/FFMetrics/logs/ssim_logfile-6.txt'" -f null -
Input #0, matroska,webm, from 'G:\Аниме\Онгоинги\!_36_Осень_2024\DreamCast\Эй, Томбо!\ТВ-2\[DC] Tonbo 2 - 02_Telegram_HEVC.mkv':
  Metadata:
    COMPATIBLE_BRANDS: isomiso2avc1mp41
    MAJOR_BRAND     : isom
    MINOR_VERSION   : 512
    ENCODER         : Lavf61.7.100
  Duration: 00:24:20.82, start: -0.021000, bitrate: 1241 kb/s
  Stream #0:0: Video: hevc (Main 10), yuv420p10le(tv, bt709, progressive), 1920x1080 [SAR 1:1 DAR 16:9], 23.98 fps, 23.98 tbr, 1k tbn (default)
      Metadata:
        HANDLER_NAME    : VideoHandler
        VENDOR_ID       : [0][0][0][0]
        ENCODER         : Lavc61.19.100 libx265
        BPS             : 1045844
        DURATION        : 00:24:19.708708333
        NUMBER_OF_FRAMES: 34998
        NUMBER_OF_BYTES : 190828358
        _STATISTICS_WRITING_APP: mkvpropedit v66.0.0 ('Josie') 64-bit
        _STATISTICS_WRITING_DATE_UTC: 2025-06-06 06:48:27
        _STATISTICS_TAGS: BPS DURATION NUMBER_OF_FRAMES NUMBER_OF_BYTES
  Stream #0:1: Audio: aac (LC), 48000 Hz, stereo, fltp (default)
      Metadata:
        HANDLER_NAME    : SoundHandler
        VENDOR_ID       : [0][0][0][0]
        ENCODER         : Lavc61.19.100 aac
        BPS             : 192786
        DURATION        : 00:24:20.821000000
        NUMBER_OF_FRAMES: 68477
        NUMBER_OF_BYTES : 35203266
        _STATISTICS_WRITING_APP: mkvpropedit v66.0.0 ('Josie') 64-bit
        _STATISTICS_WRITING_DATE_UTC: 2025-06-06 06:48:27
        _STATISTICS_TAGS: BPS DURATION NUMBER_OF_FRAMES NUMBER_OF_BYTES
Input #1, mov,mp4,m4a,3gp,3g2,mj2, from 'G:\Аниме\Онгоинги\!_36_Осень_2024\DreamCast\Эй, Томбо!\ТВ-2\[DC] Tonbo 2 - 02_Telegram.mp4':
  Metadata:
    major_brand     : isom
    minor_version   : 512
    compatible_brands: isomiso2avc1mp41
    encoder         : Lavf61.1.100
  Duration: 00:24:20.80, start: 0.000000, bitrate: 3723 kb/s
  Stream #1:0[0x1](und): Video: h264 (High) (avc1 / 0x31637661), yuv420p(tv, bt709, progressive), 1920x1080 [SAR 1:1 DAR 16:9], 3578 kb/s, 23.98 fps, 23.98 tbr, 24k tbn (default)
      Metadata:
        handler_name    : VideoHandler
        vendor_id       : [0][0][0][0]
        encoder         : Lavc61.3.100 h264_qsv
  Stream #1:1[0x2](und): Audio: aac (HE-AACv2) (mp4a / 0x6134706D), 48000 Hz, stereo, fltp, 144 kb/s (default)
      Metadata:
        handler_name    : SoundHandler
        vendor_id       : [0][0][0][0]
Stream mapping:
  Stream #0:0 (hevc) -> settb:default
  Stream #1:0 (h264) -> settb:default
  ssim:default -> Stream #0:0 (wrapped_avframe)
  Stream #0:1 -> #0:1 (aac (native) -> pcm_s16le (native))
Output #0, null, to 'pipe:':
  Metadata:
    COMPATIBLE_BRANDS: isomiso2avc1mp41
    MAJOR_BRAND     : isom
    MINOR_VERSION   : 512
    encoder         : Lavf61.7.100
  Stream #0:0: Video: wrapped_avframe, yuv420p10le(tv, bt709, progressive), 1920x1080 [SAR 1:1 DAR 16:9], q=2-31, 200 kb/s, 23.98 fps, 23.98 tbn
      Metadata:
        encoder         : Lavc61.19.100 wrapped_avframe
  Stream #0:1: Audio: pcm_s16le, 48000 Hz, stereo, s16, 1536 kb/s (default)
      Metadata:
        HANDLER_NAME    : SoundHandler
        VENDOR_ID       : [0][0][0][0]
        _STATISTICS_TAGS: BPS DURATION NUMBER_OF_FRAMES NUMBER_OF_BYTES
        BPS             : 192786
        DURATION        : 00:24:20.821000000
        NUMBER_OF_FRAMES: 68477
        NUMBER_OF_BYTES : 35203266
        _STATISTICS_WRITING_APP: mkvpropedit v66.0.0 ('Josie') 64-bit
        _STATISTICS_WRITING_DATE_UTC: 2025-06-06 06:48:27
        encoder         : Lavc61.19.100 pcm_s16le
frame=  176 fps=0.0 q=-0.0 size=N/A time=00:00:07.34 bitrate=N/A speed=14.4x    frame=  412 fps=404 q=-0.0 size=N/A time=00:00:17.18 bitrate=N/A speed=16.8x    frame=  679 fps=441 q=-0.0 size=N/A time=00:00:28.31 bitrate=N/A speed=18.4x    frame=  954 fps=465 q=-0.0 size=N/A time=00:00:39.78 bitrate=N/A speed=19.4x    frame= 1235 fps=479 q=-0.0 size=N/A time=00:00:51.50 bitrate=N/A speed=  20x    frame= 1510 fps=489 q=-0.0 size=N/A time=00:01:02.97 bitrate=N/A speed=20.4x    frame= 1677 fps=466 q=-0.0 size=N/A time=00:01:09.94 bitrate=N/A speed=19.4x    frame= 1886 fps=458 q=-0.0 size=N/A time=00:01:18.66 bitrate=N/A speed=19.1x    frame= 2079 fps=449 q=-0.0 size=N/A time=00:01:26.71 bitrate=N/A speed=18.7x    frame= 2300 fps=446 q=-0.0 size=N/A time=00:01:35.92 bitrate=N/A speed=18.6x    frame= 2524 fps=446 q=-0.0 size=N/A time=00:01:45.27 bitrate=N/A speed=18.6x    frame= 2761 fps=446 q=-0.0 size=N/A time=00:01:55.15 bitrate=N/A speed=18.6x    frame= 2965 fps=443 q=-0.0 size=N/A time=00:02:03.66 bitrate=N/A speed=18.5x    frame= 3102 fps=430 q=-0.0 size=N/A time=00:02:09.37 bitrate=N/A speed=17.9x    frame= 3270 fps=423 q=-0.0 size=N/A time=00:02:16.38 bitrate=N/A speed=17.7x    frame= 3487 fps=423 q=-0.0 size=N/A time=00:02:25.43 bitrate=N/A speed=17.6x    frame= 3627 fps=414 q=-0.0 size=N/A time=00:02:31.27 bitrate=N/A speed=17.3x    frame= 3884 fps=419 q=-0.0 size=N/A time=00:02:41.99 bitrate=N/A speed=17.5x    frame= 4128 fps=422 q=-0.0 size=N/A time=00:02:52.17 bitrate=N/A speed=17.6x    frame= 4383 fps=425 q=-0.0 size=N/A time=00:03:02.80 bitrate=N/A speed=17.7x    frame= 4650 fps=430 q=-0.0 size=N/A time=00:03:13.94 bitrate=N/A speed=17.9x    frame= 4892 fps=432 q=-0.0 size=N/A time=00:03:24.03 bitrate=N/A speed=  18x    frame= 5150 fps=434 q=-0.0 size=N/A time=00:03:34.79 bitrate=N/A speed=18.1x    frame= 5404 fps=437 q=-0.0 size=N/A time=00:03:45.39 bitrate=N/A speed=18.2x    frame= 5682 fps=441 q=-0.0 size=N/A time=00:03:56.98 bitrate=N/A speed=18.4x    frame= 5958 fps=445 q=-0.0 size=N/A time=00:04:08.49 bitrate=N/A speed=18.5x    frame= 6233 fps=448 q=-0.0 size=N/A time=00:04:19.96 bitrate=N/A speed=18.7x    frame= 6496 fps=450 q=-0.0 size=N/A time=00:04:30.93 bitrate=N/A speed=18.8x    frame= 6781 fps=454 q=-0.0 size=N/A time=00:04:42.82 bitrate=N/A speed=18.9x    frame= 7055 fps=456 q=-0.0 size=N/A time=00:04:54.25 bitrate=N/A speed=  19x    frame= 7305 fps=457 q=-0.0 size=N/A time=00:05:04.67 bitrate=N/A speed=19.1x    frame= 7579 fps=460 q=-0.0 size=N/A time=00:05:16.10 bitrate=N/A speed=19.2x    frame= 7868 fps=463 q=-0.0 size=N/A time=00:05:28.16 bitrate=N/A speed=19.3x    frame= 8132 fps=464 q=-0.0 size=N/A time=00:05:39.17 bitrate=N/A speed=19.4x    frame= 8410 fps=466 q=-0.0 size=N/A time=00:05:50.76 bitrate=N/A speed=19.4x    frame= 8671 fps=467 q=-0.0 size=N/A time=00:06:01.65 bitrate=N/A speed=19.5x    frame= 8939 fps=469 q=-0.0 size=N/A time=00:06:12.83 bitrate=N/A speed=19.6x    frame= 9225 fps=471 q=-0.0 size=N/A time=00:06:24.75 bitrate=N/A speed=19.6x    frame= 9493 fps=472 q=-0.0 size=N/A time=00:06:35.93 bitrate=N/A speed=19.7x    frame= 9768 fps=474 q=-0.0 size=N/A time=00:06:47.40 bitrate=N/A speed=19.8x    frame=10022 fps=474 q=-0.0 size=N/A time=00:06:58.00 bitrate=N/A speed=19.8x    frame=10273 fps=475 q=-0.0 size=N/A time=00:07:08.46 bitrate=N/A speed=19.8x    frame=10542 fps=476 q=-0.0 size=N/A time=00:07:19.68 bitrate=N/A speed=19.8x    frame=10806 fps=476 q=-0.0 size=N/A time=00:07:30.70 bitrate=N/A speed=19.9x    frame=11020 fps=475 q=-0.0 size=N/A time=00:07:39.62 bitrate=N/A speed=19.8x    frame=11245 fps=474 q=-0.0 size=N/A time=00:07:49.01 bitrate=N/A speed=19.8x    frame=11507 fps=475 q=-0.0 size=N/A time=00:07:59.93 bitrate=N/A speed=19.8x    frame=11783 fps=476 q=-0.0 size=N/A time=00:08:11.44 bitrate=N/A speed=19.9x    frame=12060 fps=477 q=-0.0 size=N/A time=00:08:23.00 bitrate=N/A speed=19.9x    frame=12333 fps=478 q=-0.0 size=N/A time=00:08:34.38 bitrate=N/A speed=  20x    frame=12603 fps=479 q=-0.0 size=N/A time=00:08:45.65 bitrate=N/A speed=  20x    frame=12898 fps=481 q=-0.0 size=N/A time=00:08:57.95 bitrate=N/A speed=20.1x    frame=13168 fps=482 q=-0.0 size=N/A time=00:09:09.21 bitrate=N/A speed=20.1x    frame=13464 fps=484 q=-0.0 size=N/A time=00:09:21.56 bitrate=N/A speed=20.2x    frame=13737 fps=485 q=-0.0 size=N/A time=00:09:32.94 bitrate=N/A speed=20.2x    frame=13993 fps=485 q=-0.0 size=N/A time=00:09:43.62 bitrate=N/A speed=20.2x    frame=14256 fps=485 q=-0.0 size=N/A time=00:09:54.59 bitrate=N/A speed=20.2x    frame=14499 fps=485 q=-0.0 size=N/A time=00:10:04.72 bitrate=N/A speed=20.2x    frame=14773 fps=486 q=-0.0 size=N/A time=00:10:16.15 bitrate=N/A speed=20.3x    frame=15016 fps=485 q=-0.0 size=N/A time=00:10:26.29 bitrate=N/A speed=20.2x    frame=15268 fps=486 q=-0.0 size=N/A time=00:10:36.80 bitrate=N/A speed=20.3x    frame=15534 fps=486 q=-0.0 size=N/A time=00:10:47.89 bitrate=N/A speed=20.3x    frame=15808 fps=487 q=-0.0 size=N/A time=00:10:59.32 bitrate=N/A speed=20.3x    frame=16097 fps=488 q=-0.0 size=N/A time=00:11:11.37 bitrate=N/A speed=20.4x    frame=16348 fps=488 q=-0.0 size=N/A time=00:11:21.84 bitrate=N/A speed=20.3x    frame=16590 fps=488 q=-0.0 size=N/A time=00:11:31.94 bitrate=N/A speed=20.3x    frame=16848 fps=488 q=-0.0 size=N/A time=00:11:42.70 bitrate=N/A speed=20.3x    frame=17110 fps=488 q=-0.0 size=N/A time=00:11:53.62 bitrate=N/A speed=20.4x    frame=17381 fps=489 q=-0.0 size=N/A time=00:12:04.93 bitrate=N/A speed=20.4x    frame=17642 fps=489 q=-0.0 size=N/A time=00:12:15.81 bitrate=N/A speed=20.4x    frame=17876 fps=488 q=-0.0 size=N/A time=00:12:25.57 bitrate=N/A speed=20.4x    frame=18135 fps=489 q=-0.0 size=N/A time=00:12:36.38 bitrate=N/A speed=20.4x    frame=18396 fps=489 q=-0.0 size=N/A time=00:12:47.26 bitrate=N/A speed=20.4x    frame=18649 fps=489 q=-0.0 size=N/A time=00:12:57.81 bitrate=N/A speed=20.4x    frame=18902 fps=489 q=-0.0 size=N/A time=00:13:08.37 bitrate=N/A speed=20.4x    frame=19168 fps=489 q=-0.0 size=N/A time=00:13:19.46 bitrate=N/A speed=20.4x    frame=19420 fps=489 q=-0.0 size=N/A time=00:13:29.97 bitrate=N/A speed=20.4x    frame=19671 fps=489 q=-0.0 size=N/A time=00:13:40.44 bitrate=N/A speed=20.4x    frame=19906 fps=489 q=-0.0 size=N/A time=00:13:50.24 bitrate=N/A speed=20.4x    frame=20155 fps=489 q=-0.0 size=N/A time=00:14:00.63 bitrate=N/A speed=20.4x    frame=20418 fps=489 q=-0.0 size=N/A time=00:14:11.60 bitrate=N/A speed=20.4x    frame=20674 fps=489 q=-0.0 size=N/A time=00:14:22.27 bitrate=N/A speed=20.4x    frame=20916 fps=489 q=-0.0 size=N/A time=00:14:32.37 bitrate=N/A speed=20.4x    frame=21191 fps=489 q=-0.0 size=N/A time=00:14:43.84 bitrate=N/A speed=20.4x    frame=21466 fps=490 q=-0.0 size=N/A time=00:14:55.31 bitrate=N/A speed=20.4x    frame=21707 fps=489 q=-0.0 size=N/A time=00:15:05.36 bitrate=N/A speed=20.4x    frame=21989 fps=490 q=-0.0 size=N/A time=00:15:17.12 bitrate=N/A speed=20.4x    frame=22284 fps=491 q=-0.0 size=N/A time=00:15:29.42 bitrate=N/A speed=20.5x    frame=22562 fps=492 q=-0.0 size=N/A time=00:15:41.02 bitrate=N/A speed=20.5x    frame=22855 fps=492 q=-0.0 size=N/A time=00:15:53.24 bitrate=N/A speed=20.5x    frame=23136 fps=493 q=-0.0 size=N/A time=00:16:04.96 bitrate=N/A speed=20.6x    frame=23423 fps=494 q=-0.0 size=N/A time=00:16:16.93 bitrate=N/A speed=20.6x    frame=23699 fps=494 q=-0.0 size=N/A time=00:16:28.44 bitrate=N/A speed=20.6x    frame=23938 fps=494 q=-0.0 size=N/A time=00:16:38.41 bitrate=N/A speed=20.6x    frame=24173 fps=493 q=-0.0 size=N/A time=00:16:48.21 bitrate=N/A speed=20.6x    frame=24412 fps=493 q=-0.0 size=N/A time=00:16:58.18 bitrate=N/A speed=20.6x    frame=24560 fps=491 q=-0.0 size=N/A time=00:17:04.35 bitrate=N/A speed=20.5x    frame=24800 fps=491 q=-0.0 size=N/A time=00:17:14.36 bitrate=N/A speed=20.5x    frame=25027 fps=490 q=-0.0 size=N/A time=00:17:23.83 bitrate=N/A speed=20.4x    frame=25286 fps=490 q=-0.0 size=N/A time=00:17:34.63 bitrate=N/A speed=20.4x    frame=25513 fps=490 q=-0.0 size=N/A time=00:17:44.10 bitrate=N/A speed=20.4x    frame=25736 fps=489 q=-0.0 size=N/A time=00:17:53.40 bitrate=N/A speed=20.4x    frame=26016 fps=490 q=-0.0 size=N/A time=00:18:05.08 bitrate=N/A speed=20.4x    frame=26225 fps=489 q=-0.0 size=N/A time=00:18:13.80 bitrate=N/A speed=20.4x    frame=26480 fps=489 q=-0.0 size=N/A time=00:18:24.43 bitrate=N/A speed=20.4x    frame=26684 fps=488 q=-0.0 size=N/A time=00:18:32.94 bitrate=N/A speed=20.4x    frame=26864 fps=487 q=-0.0 size=N/A time=00:18:40.45 bitrate=N/A speed=20.3x    frame=27138 fps=487 q=-0.0 size=N/A time=00:18:51.88 bitrate=N/A speed=20.3x    frame=27402 fps=487 q=-0.0 size=N/A time=00:19:02.89 bitrate=N/A speed=20.3x    frame=27608 fps=487 q=-0.0 size=N/A time=00:19:11.48 bitrate=N/A speed=20.3x    frame=27797 fps=486 q=-0.0 size=N/A time=00:19:19.36 bitrate=N/A speed=20.3x    frame=28028 fps=485 q=-0.0 size=N/A time=00:19:29.00 bitrate=N/A speed=20.2x    frame=28304 fps=486 q=-0.0 size=N/A time=00:19:40.51 bitrate=N/A speed=20.3x    frame=28576 fps=486 q=-0.0 size=N/A time=00:19:51.85 bitrate=N/A speed=20.3x    frame=28713 fps=484 q=-0.0 size=N/A time=00:19:57.57 bitrate=N/A speed=20.2x    frame=28910 fps=483 q=-0.0 size=N/A time=00:20:05.78 bitrate=N/A speed=20.2x    frame=29076 fps=482 q=-0.0 size=N/A time=00:20:12.71 bitrate=N/A speed=20.1x    frame=29298 fps=481 q=-0.0 size=N/A time=00:20:21.97 bitrate=N/A speed=20.1x    frame=29554 fps=482 q=-0.0 size=N/A time=00:20:32.64 bitrate=N/A speed=20.1x    frame=29824 fps=482 q=-0.0 size=N/A time=00:20:43.90 bitrate=N/A speed=20.1x    frame=30089 fps=482 q=-0.0 size=N/A time=00:20:54.96 bitrate=N/A speed=20.1x    frame=30295 fps=482 q=-0.0 size=N/A time=00:21:03.55 bitrate=N/A speed=20.1x    frame=30554 fps=482 q=-0.0 size=N/A time=00:21:14.35 bitrate=N/A speed=20.1x    frame=30809 fps=482 q=-0.0 size=N/A time=00:21:24.99 bitrate=N/A speed=20.1x    frame=31016 fps=481 q=-0.0 size=N/A time=00:21:33.62 bitrate=N/A speed=20.1x    frame=31263 fps=481 q=-0.0 size=N/A time=00:21:43.92 bitrate=N/A speed=20.1x    frame=31453 fps=480 q=-0.0 size=N/A time=00:21:51.85 bitrate=N/A speed=  20x    frame=31634 fps=479 q=-0.0 size=N/A time=00:21:59.40 bitrate=N/A speed=  20x    frame=31846 fps=479 q=-0.0 size=N/A time=00:22:08.24 bitrate=N/A speed=  20x    frame=32079 fps=478 q=-0.0 size=N/A time=00:22:17.96 bitrate=N/A speed=  20x    frame=32327 fps=478 q=-0.0 size=N/A time=00:22:28.30 bitrate=N/A speed=  20x    frame=32562 fps=478 q=-0.0 size=N/A time=00:22:38.10 bitrate=N/A speed=19.9x    frame=32794 fps=478 q=-0.0 size=N/A time=00:22:47.78 bitrate=N/A speed=19.9x    frame=33034 fps=478 q=-0.0 size=N/A time=00:22:57.79 bitrate=N/A speed=19.9x    frame=33263 fps=478 q=-0.0 size=N/A time=00:23:07.34 bitrate=N/A speed=19.9x    frame=33489 fps=477 q=-0.0 size=N/A time=00:23:16.77 bitrate=N/A speed=19.9x    frame=33678 fps=477 q=-0.0 size=N/A time=00:23:24.65 bitrate=N/A speed=19.9x    frame=33914 fps=476 q=-0.0 size=N/A time=00:23:34.49 bitrate=N/A speed=19.9x    frame=34175 fps=477 q=-0.0 size=N/A time=00:23:45.38 bitrate=N/A speed=19.9x    frame=34386 fps=476 q=-0.0 size=N/A time=00:23:54.18 bitrate=N/A speed=19.9x    frame=34561 fps=475 q=-0.0 size=N/A time=00:24:01.48 bitrate=N/A speed=19.8x    frame=34785 fps=475 q=-0.0 size=N/A time=00:24:10.82 bitrate=N/A speed=19.8x    [Parsed_ssim_10 @ 0000023497a48240] SSIM Y:0.993899 (22.145956) U:0.993516 (21.881745) V:0.994124 (22.308819) All:0.993873 (22.127235)
[out#0/null @ 00000234957e4200] video:15038KiB audio:273908KiB subtitle:0KiB other streams:0KiB global headers:0KiB muxing overhead: unknown
frame=34998 fps=475 q=-0.0 Lsize=N/A time=00:24:19.70 bitrate=N/A speed=19.8x    
